HIERARCHY
ROOT Hips
{
	OFFSET 0.00000 0.00000 0.00000
	CHANNELS 6 Xposition Yposition Zposition Zrotation Yrotation Xrotation 
	JOINT LHipJoint
	{
		OFFSET 0 0 0
		CHANNELS 3 Zrotation Yrotation Xrotation
		JOINT LeftHip
		{
			OFFSET 1.81638 -1.86202 0.89635
			CHANNELS 3 Zrotation Yrotation Xrotation
			JOINT LeftKnee
			{
				OFFSET 2.63464 -7.23861 0.00000
				CHANNELS 3 Zrotation Yrotation Xrotation
				JOINT LeftAnkle
				{
					OFFSET 2.45871 -6.75336 0.00000
					CHANNELS 3 Zrotation Yrotation Xrotation
					JOINT LeftToe
					{
						OFFSET 0.34235 -0.94059 2.20020
						CHANNELS 3 Zrotation Yrotation Xrotation
						End Site
						{
							OFFSET 0.00000 -0.00000 1.18611
						}
					}
				}
			}
		}
	}
	JOINT RHipJoint
	{
		OFFSET 0 0 0
		CHANNELS 3 Zrotation Yrotation Xrotation
		JOINT RightHip
		{
			OFFSET -1.84405 -1.86203 0.89635
			CHANNELS 3 Zrotation Yrotation Xrotation
			JOINT RightKnee
			{
				OFFSET -2.71067 -7.44751 0.00000
				CHANNELS 3 Zrotation Yrotation Xrotation
				JOINT RightAnkle
				{
					OFFSET -2.47159 -6.79060 0.00000
					CHANNELS 3 Zrotation Yrotation Xrotation
					JOINT RightToe
					{
						OFFSET -0.26223 -0.72048 2.36007
						CHANNELS 3 Zrotation Yrotation Xrotation
						End Site
						{
							OFFSET -0.00000 -0.00000 1.23343
						}
					}
				}
			}
		}
	}
	JOINT lowerback
	{
		OFFSET 0 0 0
		CHANNELS 3 Zrotation Yrotation Xrotation
		JOINT Chest
		{
			OFFSET 0.02089 1.99248 -0.22512
			CHANNELS 3 Zrotation Yrotation Xrotation
			JOINT Chest2
			{
				OFFSET 0.01476 2.01356 -0.03079
				CHANNELS 3 Zrotation Yrotation Xrotation
				JOINT lowerneck
				{
					OFFSET 0 0 0
					CHANNELS 3 Zrotation Yrotation Xrotation
					JOINT Neck
					{
						OFFSET 0.04846 1.65098 0.06663
						CHANNELS 3 Zrotation Yrotation Xrotation
						JOINT Head
						{
							OFFSET -0.06061 1.60634 -0.07565
							CHANNELS 3 Zrotation Yrotation Xrotation
							End Site
							{
								OFFSET -0.02954 1.73562 -0.03642
							}
						}
					}
				}
				JOINT LeftCollar
				{
					OFFSET 0 0 0
					CHANNELS 3 Zrotation Yrotation Xrotation
					JOINT LeftShoulder
					{
						OFFSET 3.45234 1.47051 -0.06993
CHANNELS 3 Zrotation Xrotation Yrotation
						JOINT LeftElbow
						{
OFFSET 0 -5.493130 0.000000
CHANNELS 3 Zrotation Xrotation Yrotation
							JOINT LeftWrist
							{
OFFSET 0 -3.290370 0.000000
CHANNELS 3 Zrotation Xrotation Yrotation
								JOINT lhand
								{
									OFFSET 0 0 0
CHANNELS 3 Zrotation Xrotation Yrotation
									JOINT LFingers
									{
OFFSET 0 -0.729660 0.000000
CHANNELS 3 Zrotation Xrotation Yrotation
										End Site
										{
OFFSET 0 -0.588270 0.000000
										}
									}
								}
								JOINT LThumb
								{
OFFSET 0 0.000000 0.000000
CHANNELS 3 Zrotation Xrotation Yrotation
									End Site
									{
OFFSET 0 -0.597250 0.597250
									}
								}
							}
						}
					}
				}
				JOINT RightCollar
				{
					OFFSET 0 0 0
					CHANNELS 3 Zrotation Yrotation Xrotation
					JOINT RightShoulder
					{
						OFFSET -3.41935 1.44327 0.20453
CHANNELS 3 Zrotation Xrotation Yrotation
						JOINT RightElbow
						{
OFFSET 0 -5.236840 0.000000
CHANNELS 3 Zrotation Xrotation Yrotation
							JOINT RightWrist
							{
OFFSET 0 -3.382510 0.000000
CHANNELS 3 Zrotation Xrotation Yrotation
								JOINT rhand
								{
									OFFSET 0 0 0
CHANNELS 3 Zrotation Xrotation Yrotation
									JOINT RFingers
									{
OFFSET 0 -0.691450 0.000000
CHANNELS 3 Zrotation Xrotation Yrotation
										End Site
										{
OFFSET 0 -0.557470 0.000000
										}
									}
								}
								JOINT RThumb
								{
OFFSET 0 0.000000 0.000000
CHANNELS 3 Zrotation Xrotation Yrotation
									End Site
									{
OFFSET 0 -0.565980 0.565980
									}
								}
							}
						}
					}
				}
			}
		}
	}
}
MOTION
Frames: 4
Frame Time: 0.008333333333333333
-30.658300 17.589100 -2.274600 -61.485700 85.145100 -61.658200 0.000000 0.000000 0.000000 -8.964400 -3.769700 -8.552900 2.766700 10.307500 29.978300 1.444700 -1.832500 -22.206100 0.007000 -0.539700 -1.483000 0.000000 0.000000 0.000000 21.217700 7.619100 -4.159400 -1.719900 -8.256600 23.496200 -0.557800 -8.099100 -19.319300 -0.381700 3.967900 -10.986400 -0.145700 -1.493100 13.826600 2.866700 -1.631300 5.292200 3.324200 -0.727300 -2.084200 -1.174000 1.900400 -3.430800 -1.912100 2.597700 -7.624600 -0.414900 1.422800 -1.778700 -0.000000 0.000000 0.000000 4.733900 14.046800 -21.824000 32.827000 -43.196700 13.303500 -1.192800 -1.624000 -9.787400 0.000000 0.000000 0.000000 -7.125000 0.000000 0.000000 -24.002100 38.602200 -4.063800 -0.000000 0.000000 0.000000 -17.419100 13.410500 38.182600 -33.938200 -44.038900 -14.070100 -6.644000 4.669700 12.074300 0.000000 0.000000 0.000000 7.125000 0.000000 -0.000000 18.208700 41.411800 1.673700
-30.655453 17.587774 -2.278062 -59.123251 85.107353 -59.294291 0.000000 0.000000 0.000000 -9.067574 -3.692633 -8.499843 2.761769 10.299015 29.950480 1.466723 -1.734565 -22.406244 0.004449 -0.421519 -1.158212 0.000000 0.000000 0.000000 21.117866 7.662018 -4.279605 -1.746954 -8.317717 23.683481 -0.520567 -8.202756 -19.013775 -0.588721 4.912634 -13.659535 -0.303723 -1.411508 13.742530 2.858166 -1.546369 5.348570 3.388412 -0.687886 -1.980431 -1.004055 1.866244 -3.322219 -2.021883 2.540226 -7.719865 -0.479379 1.393325 -1.824829 0.000000 0.000000 0.000000 4.810589 13.759576 -22.016932 32.749104 -43.136321 13.250194 -1.045596 -1.551559 -10.306714 0.000000 0.000000 0.000000 -7.125000 0.000000 0.000000 -24.052150 39.088846 -3.761899 0.000000 0.000000 0.000000 -17.339044 13.300941 38.077643 -33.999186 -44.084140 -14.112497 -6.641932 4.716326 12.036083 0.000000 0.000000 0.000000 7.125000 0.000000 0.000000 18.198946 41.375063 1.689939
-30.651223 17.587185 -2.279008 -58.035225 85.011102 -58.203102 0.000000 0.000000 0.000000 -9.061346 -3.836095 -8.383897 2.763770 10.302485 29.961864 1.463308 -1.451952 -22.451917 0.005223 -0.465874 -1.280078 0.000000 0.000000 0.000000 21.149228 7.653115 -4.274825 -1.739069 -8.300038 23.629292 -0.534363 -8.017833 -18.996139 -0.526573 4.650331 -12.913842 -0.354613 -1.366525 13.679309 2.868063 -1.494047 5.392944 3.417226 -0.663243 -1.901344 -0.841436 1.826388 -3.268994 -2.113762 2.477493 -7.737934 -0.535606 1.359520 -1.837117 0.000000 0.000000 0.000000 4.940111 13.576474 -22.257604 32.819448 -43.190792 13.298299 -1.000753 -1.512008 -9.894689 0.000000 0.000000 0.000000 -7.125000 0.000000 0.000000 -23.881880 38.715878 -3.968135 0.000000 0.000000 0.000000 -17.265644 13.252010 38.054606 -34.097115 -44.156495 -14.180664 -6.604549 4.687550 11.980324 0.000000 0.000000 0.000000 7.125000 0.000000 0.000000 18.214263 41.318393 1.717950
-30.647515 17.588296 -2.279600 -57.267586 84.918794 -57.424094 0.000000 0.000000 0.000000 -9.009998 -3.750788 -8.388842 2.766651 10.307405 29.978043 1.468313 -1.444167 -22.493419 0.005993 -0.499610 -1.372903 0.000000 0.000000 0.000000 21.189551 7.640917 -4.281503 -1.733518 -8.287444 23.590567 -0.555530 -7.821661 -19.050793 -0.467823 4.386789 -12.167446 -0.364497 -1.341017 13.650538 2.867421 -1.461904 5.421194 3.416137 -0.647737 -1.857937 -0.742465 1.792474 -3.217330 -2.138869 2.427537 -7.767526 -0.560641 1.332776 -1.854512 0.000000 0.000000 0.000000 5.115499 13.418527 -22.537897 32.947687 -43.289784 13.386212 -1.003041 -1.588789 -9.623324 0.000000 0.000000 0.000000 -7.125000 0.000000 0.000000 -23.796757 38.467347 -4.109193 0.000000 0.000000 0.000000 -17.199552 13.251096 38.090073 -34.232915 -44.256588 -14.275379 -6.592829 4.648567 11.950143 0.000000 0.000000 0.000000 7.125000 0.000000 0.000000 18.215255 41.288601 1.731974
